{"accessors" : [{"bufferView" : 0, "byteOffset" : 0, "componentType" : 5123, "count" : 864, "type" : "SCALAR", "max" : [714], "min" : [0]}, {"bufferView" : 1, "byteOffset" : 0, "componentType" : 5126, "count" : 715, "type" : "VEC3", "max" : [2.1628427505493164, 0.1649223268032074, 0.18011511862277985], "min" : [-2.1628427505493164, -0.799953281879425, -1.1777949333190918], "name" : "POSITION"}, {"bufferView" : 1, "byteOffset" : 12, "componentType" : 5126, "count" : 715, "type" : "VEC3", "max" : [0.861669659614563, 0.9996623992919922, 0.9994202256202698], "min" : [-0.8616695404052734, -0.9995874762535095, -0.9994179606437683], "name" : "NORMAL"}, {"bufferView" : 1, "byteOffset" : 24, "componentType" : 5126, "count" : 715, "type" : "VEC2", "max" : [1, 1], "min" : [0, 0], "name" : "TEXCOORD_0"}, {"bufferView" : 0, "byteOffset" : 1728, "componentType" : 5123, "count" : 96, "type" : "SCALAR", "max" : [77], "min" : [0]}, {"bufferView" : 2, "byteOffset" : 0, "componentType" : 5126, "count" : 78, "type" : "VEC3", "max" : [0.4998856782913208, 0.8629966974258423, 0.4788327217102051], "min" : [-0.5435384511947632, 0.5268741846084595, -0.5645909309387207], "name" : "POSITION"}, {"bufferView" : 2, "byteOffset" : 12, "componentType" : 5126, "count" : 78, "type" : "VEC3", "max" : [0.4958418309688568, 0.9927732348442078, 0.3480548560619354], "min" : [-0.47925686836242676, 0.8052921295166016, -0.44276005029678345], "name" : "NORMAL"}, {"bufferView" : 2, "byteOffset" : 24, "componentType" : 5126, "count" : 78, "type" : "VEC2", "max" : [0.40211036801338196, 0.515128493309021], "min" : [0.30074626207351685, 0.4137645363807678], "name" : "TEXCOORD_0"}, {"bufferView" : 0, "byteOffset" : 1920, "componentType" : 5123, "count" : 96, "type" : "SCALAR", "max" : [77], "min" : [0]}, {"bufferView" : 3, "byteOffset" : 0, "componentType" : 5126, "count" : 78, "type" : "VEC3", "max" : [0.48812079429626465, 0.9344609975814819, 0.4704042375087738], "min" : [-0.5626358389854431, 0.5414351224899292, -0.5803519487380981], "name" : "POSITION"}, {"bufferView" : 3, "byteOffset" : 12, "componentType" : 5126, "count" : 78, "type" : "VEC3", "max" : [0.3479604125022888, 0.9973779916763306, 0.35001879930496216], "min" : [-0.5791013836860657, 0.7499645352363586, -0.42827120423316956], "name" : "NORMAL"}, {"bufferView" : 3, "byteOffset" : 24, "componentType" : 5126, "count" : 78, "type" : "VEC2", "max" : [0.40096741914749146, 0.5143097639083862], "min" : [0.2988910973072052, 0.4122333526611328], "name" : "TEXCOORD_0"}, {"bufferView" : 0, "byteOffset" : 2112, "componentType" : 5123, "count" : 780, "type" : "SCALAR", "max" : [647], "min" : [0]}, {"bufferView" : 4, "byteOffset" : 0, "componentType" : 5126, "count" : 648, "type" : "VEC3", "max" : [0.24288155138492584, 0.20596455037593842, 0.2887786030769348], "min" : [-0.24288155138492584, 0.0703137069940567, 0.16068214178085327], "name" : "POSITION"}, {"bufferView" : 4, "byteOffset" : 12, "componentType" : 5126, "count" : 648, "type" : "VEC3", "max" : [0.8440490365028381, 0.3789430260658264, 0.9988840222358704], "min" : [-0.8440490365028381, -0.4976237416267395, 0.5172025561332703], "name" : "NORMAL"}, {"bufferView" : 0, "byteOffset" : 3672, "componentType" : 5123, "count" : 4212, "type" : "SCALAR", "max" : [3475], "min" : [0]}, {"bufferView" : 5, "byteOffset" : 0, "componentType" : 5126, "count" : 3476, "type" : "VEC3", "max" : [0.3294670581817627, 0.36367738246917725, 0.37613147497177124], "min" : [-0.3294670581817627, -0.23733067512512207, -0.27666985988616943], "name" : "POSITION"}, {"bufferView" : 5, "byteOffset" : 12, "componentType" : 5126, "count" : 3476, "type" : "VEC3", "max" : [0.9963281154632568, 0.9967602491378784, 0.998593270778656], "min" : [-0.9963282942771912, -0.9728572368621826, -0.9999821186065674], "name" : "NORMAL"}, {"bufferView" : 5, "byteOffset" : 24, "componentType" : 5126, "count" : 3476, "type" : "VEC4", "max" : [0.9886029958724976, 0.9997132420539856, 0.9947678446769714, 0], "min" : [-0.9994907379150391, -0.9986228346824646, -0.998213529586792, 0], "name" : "TANGENT"}, {"bufferView" : 5, "byteOffset" : 40, "componentType" : 5126, "count" : 3476, "type" : "VEC2", "max" : [0.97382652759552, 0.9738265872001648], "min" : [0.026173412799835205, 0.06743454933166504], "name" : "TEXCOORD_0"}], "asset" : {"generator" : "Aspose.3D 23.9.0", "version" : "2.0"}, "buffers" : [{"uri" : "data:application/octet-stream;base64,", "byteLength" : 266808}], "bufferViews" : [{"buffer" : 0, "byteOffset" : 0, "byteLength" : 12096, "target" : 34963}, {"buffer" : 0, "byteOffset" : 12100, "byteLength" : 27648, "byteStride" : 32, "target" : 34962}, {"buffer" : 0, "byteOffset" : 39752, "byteLength" : 3072, "byteStride" : 32, "target" : 34962}, {"buffer" : 0, "byteOffset" : 42828, "byteLength" : 3072, "byteStride" : 32, "target" : 34962}, {"buffer" : 0, "byteOffset" : 45904, "byteLength" : 18720, "byteStride" : 24, "target" : 34962}, {"buffer" : 0, "byteOffset" : 64628, "byteLength" : 202176, "byteStride" : 48, "target" : 34962}], "images" : [{"uri" : "data:image/png;base64,"}, {"uri" : "data:image/png;base64,"}, {"uri" : "data:image/jpeg;base64,"}], "materials" : [{"name" : "Material.001", "pbrMetallicRoughness" : {"baseColorFactor" : [0.7999999999999999, 0.1645300000000001, 0.06650670000000002, 1], "metallicFactor" : 0, "roughnessFactor" : 0.5}, "emissiveFactor" : [0, 0, 0], "alphaMode" : "OPAQUE", "doubleSided" : true}, {"name" : "Material", "pbrMetallicRoughness" : {"baseColorFactor" : [1, 1, 1, 1], "baseColorTexture" : {"index" : 0, "texCoord" : 0}, "metallicFactor" : 0, "roughnessFactor" : 0.2}, "emissiveFactor" : [0, 0, 0], "alphaMode" : "OPAQUE", "doubleSided" : true}, {"name" : "Material", "pbrMetallicRoughness" : {"baseColorFactor" : [1, 1, 1, 1], "baseColorTexture" : {"index" : 0, "texCoord" : 0}, "metallicFactor" : 0, "roughnessFactor" : 0.2}, "emissiveFactor" : [0, 0, 0], "alphaMode" : "OPAQUE", "doubleSided" : true}, {"name" : "Material.002", "pbrMetallicRoughness" : {"baseColorFactor" : [0.8, 0.8, 0.8, 1], "metallicFactor" : 0, "roughnessFactor" : 0.3}, "emissiveFactor" : [0, 0, 0], "alphaMode" : "OPAQUE", "doubleSided" : true}, {"name" : "Material.004", "pbrMetallicRoughness" : {"baseColorFactor" : [1, 1, 1, 1], "baseColorTexture" : {"index" : 2, "texCoord" : 0}, "metallicFactor" : 0, "roughnessFactor" : 0.24190658462172757}, "normalTexture" : {"index" : 1, "texCoord" : 0, "scale" : 1}, "emissiveFactor" : [0, 0, 0], "alphaMode" : "OPAQUE", "doubleSided" : true}], "meshes" : [{"primitives" : [{"attributes" : {"POSITION" : 1, "NORMAL" : 2, "TEXCOORD_0" : 3}, "indices" : 0, "material" : 0, "mode" : 4}]}, {"primitives" : [{"attributes" : {"POSITION" : 5, "NORMAL" : 6, "TEXCOORD_0" : 7}, "indices" : 4, "material" : 1, "mode" : 4}]}, {"primitives" : [{"attributes" : {"POSITION" : 9, "NORMAL" : 10, "TEXCOORD_0" : 11}, "indices" : 8, "material" : 2, "mode" : 4}]}, {"primitives" : [{"attributes" : {"POSITION" : 13, "NORMAL" : 14}, "indices" : 12, "material" : 3, "mode" : 4}]}, {"primitives" : [{"attributes" : {"POSITION" : 16, "NORMAL" : 17, "TANGENT" : 18, "TEXCOORD_0" : 19}, "indices" : 15, "material" : 4, "mode" : 4}]}], "nodes" : [{"mesh" : 0, "name" : "Object_4"}, {"children" : [0], "matrix" : [0.11792704463005066, 0, 0, 0, 0, 0.11792704463005066, 0, 0, 0, 0, 0.11792704463005066, 0, -0.006196737289428711, 0.009765180759131908, 0.38573944568634033, 1], "name" : "BezierCurve_0"}, {"mesh" : 1, "name" : "Object_6"}, {"children" : [2], "matrix" : [-0.09654658476242697, 1.8608721689354394E-10, 0.008117684901969166, 0, -0.008117684864339128, 9.326739440165685E-06, -0.096546584315093, 0, -7.816249868032831E-07, -0.09688725277593581, -9.293929793145047E-06, 0, 0.12180253863334656, 0.12847210466861725, 0.35318994522094727, 1], "name" : "Plane.001_1"}, {"mesh" : 2, "name" : "Object_8"}, {"children" : [4], "matrix" : [-0.09654658476242697, 1.8608721689354394E-10, 0.008117684901969166, 0, -0.008117684864339128, 9.326739440165685E-06, -0.096546584315093, 0, -7.816249868032831E-07, -0.09688725277593581, -9.293929793145047E-06, 0, -0.1119164377450943, 0.129966601729393, 0.35318994522094727, 1], "name" : "Plane_2"}, {"mesh" : 3, "name" : "Object_10"}, {"children" : [6], "matrix" : [1, 0, 0, 0, 0, 1, 0, 0, 0, 0, 1, 0, 0, 0, 0.009525944478809834, 1], "name" : "eyes_3"}, {"mesh" : 4, "name" : "Object_12"}, {"children" : [8], "name" : "Sketchfab Face_4"}, {"children" : [1, 3, 5, 7, 9], "matrix" : [1, 0, 0, 0, 0, 2.220446049250313E-16, 1, 0, 0, -1, 2.220446049250313E-16, 0, 0, 0, 0, 1], "name" : "GLTF_SceneRootNode"}, {"children" : [10], "name" : "root"}, {"children" : [11], "matrix" : [1, 0, 0, 0, 0, 2.220446049250313E-16, -1, 0, 0, 1, 2.220446049250313E-16, 0, 0, 0, 0, 1], "name" : "Sketchfab_model"}], "samplers" : [{"magFilter" : 9729, "minFilter" : 9987, "wrapS" : 10497, "wrapT" : 10497}, {"magFilter" : 9729, "minFilter" : 9987, "wrapS" : 10497, "wrapT" : 10497}, {"magFilter" : 9729, "minFilter" : 9987, "wrapS" : 10497, "wrapT" : 10497}], "scene" : 0, "scenes" : [{"nodes" : [12]}], "textures" : [{"sampler" : 0, "source" : 0, "name" : ""}, {"sampler" : 1, "source" : 1, "name" : ""}, {"sampler" : 2, "source" : 2, "name" : ""}]}