{
  "accessors": [
    {
      "bufferView": 2,
      "componentType": 5126,
      "count": 360,
      "max": [
        47.933738708496094,
        24.362516403198242,
        21.43842315673828
      ],
      "min": [
        -47.9337272644043,
        -24.36203956604004,
        -24.02162742614746
      ],
      "type": "VEC3"
    },
    {
      "bufferView": 2,
      "byteOffset": 4320,
      "componentType": 5126,
      "count": 360,
      "max": [
        1.0,
        1.0,
        1.0
      ],
      "min": [
        -1.0,
        -1.0,
        -1.0
      ],
      "type": "VEC3"
    },
    {
      "bufferView": 1,
      "componentType": 5126,
      "count": 360,
      "max": [
        1.0000001192092896,
        1.0
      ],
      "min": [
        0.0,
        0.0
      ],
      "type": "VEC2"
    },
    {
      "bufferView": 0,
      "componentType": 5125,
      "count": 1584,
      "type": "SCALAR"
    },
    {
      "bufferView": 2,
      "byteOffset": 8640,
      "componentType": 5126,
      "count": 468,
      "max": [
        72.62120819091797,
        49.376678466796875,
        47.02256774902344
      ],
      "min": [
        -72.62120819091797,
        -75.88047790527344,
        -91.50928497314453
      ],
      "type": "VEC3"
    },
    {
      "bufferView": 2,
      "byteOffset": 14256,
      "componentType": 5126,
      "count": 468,
      "max": [
        0.991265058517456,
        0.9938647747039795,
        0.9992127418518066
      ],
      "min": [
        -0.991265058517456,
        -0.9828404188156128,
        -0.9846500158309937
      ],
      "type": "VEC3"
    },
    {
      "bufferView": 1,
      "byteOffset": 2880,
      "componentType": 5126,
      "count": 468,
      "max": [
        1.0,
        1.0000001192092896
      ],
      "min": [
        0.0,
        0.0
      ],
      "type": "VEC2"
    },
    {
      "bufferView": 0,
      "byteOffset": 6336,
      "componentType": 5125,
      "count": 2556,
      "type": "SCALAR"
    },
    {
      "bufferView": 2,
      "byteOffset": 19872,
      "componentType": 5126,
      "count": 372,
      "max": [
        62.925636291503906,
        15.09861946105957,
        16.16716957092285
      ],
      "min": [
        -62.89337921142578,
        -19.949960708618164,
        -15.448927879333496
      ],
      "type": "VEC3"
    },
    {
      "bufferView": 2,
      "byteOffset": 24336,
      "componentType": 5126,
      "count": 372,
      "max": [
        0.9728047251701355,
        0.9925758242607117,
        0.9966307282447815
      ],
      "min": [
        -0.9728047251701355,
        -0.958963930606842,
        -0.9964707493782043
      ],
      "type": "VEC3"
    },
    {
      "bufferView": 1,
      "byteOffset": 6624,
      "componentType": 5126,
      "count": 372,
      "max": [
        1.0,
        1.0
      ],
      "min": [
        -7.450580596923828e-08,
        0.01000000536441803
      ],
      "type": "VEC2"
    },
    {
      "bufferView": 0,
      "byteOffset": 16560,
      "componentType": 5125,
      "count": 1968,
      "type": "SCALAR"
    },
    {
      "bufferView": 2,
      "byteOffset": 28800,
      "componentType": 5126,
      "count": 680,
      "max": [
        35.20861053466797,
        11.637353897094727,
        0.9066224098205566
      ],
      "min": [
        -35.20860290527344,
        -11.636877059936523,
        -1.1855006217956543
      ],
      "type": "VEC3"
    },
    {
      "bufferView": 2,
      "byteOffset": 36960,
      "componentType": 5126,
      "count": 680,
      "max": [
        0.3619941473007202,
        0.36200106143951416,
        1.0
      ],
      "min": [
        -0.3619941473007202,
        -0.36199113726615906,
        -1.0
      ],
      "type": "VEC3"
    },
    {
      "bufferView": 1,
      "byteOffset": 9600,
      "componentType": 5126,
      "count": 680,
      "max": [
        1.0000001192092896,
        1.0000001192092896
      ],
      "min": [
        2.980232594040899e-08,
        0.8333333134651184
      ],
      "type": "VEC2"
    },
    {
      "bufferView": 0,
      "byteOffset": 24432,
      "componentType": 5125,
      "count": 2304,
      "type": "SCALAR"
    }
  ],
  "asset": {
    "extras": {
      "author": "Larry (https://sketchfab.com/laurent-dem1994)",
      "license": "CC-BY-4.0 (http://creativecommons.org/licenses/by/4.0/)",
      "source": "https://sketchfab.com/3d-models/pepe-the-frog-a20102040f1341c38c4f5bb92c0da2a2",
      "title": "Pepe The Frog"
    },
    "generator": "Sketchfab-12.67.0",
    "version": "2.0"
  },
  "bufferViews": [
    {
      "buffer": 0,
      "byteLength": 33648,
      "name": "floatBufferViews",
      "target": 34963
    },
    {
      "buffer": 0,
      "byteLength": 15040,
      "byteOffset": 33648,
      "byteStride": 8,
      "name": "floatBufferViews",
      "target": 34962
    },
    {
      "buffer": 0,
      "byteLength": 45120,
      "byteOffset": 48688,
      "byteStride": 12,
      "name": "floatBufferViews",
      "target": 34962
    }
  ],
  "buffers": [
    {
      "byteLength": 93808,
      "uri": "scene.bin"
    }
  ],
  "materials": [
    {
      "doubleSided": true,
      "name": "EyesWhite__0",
      "pbrMetallicRoughness": {
        "metallicFactor": 0.0,
        "roughnessFactor": 0.792132559935307
      }
    },
    {
      "doubleSided": true,
      "name": "Material.001",
      "pbrMetallicRoughness": {
        "baseColorFactor": [
          0.25735,
          0.8,
          0.0347902,
          1.0
        ],
        "metallicFactor": 0.0,
        "roughnessFactor": 0.8592653558001997
      }
    },
    {
      "doubleSided": true,
      "name": "Pink",
      "pbrMetallicRoughness": {
        "baseColorFactor": [
          0.8,
          0.193735,
          0.107192,
          1.0
        ],
        "metallicFactor": 0.0,
        "roughnessFactor": 0.9292556090459845
      }
    },
    {
      "doubleSided": true,
      "name": "M_Black",
      "pbrMetallicRoughness": {
        "baseColorFactor": [
          0.0134083,
          0.0134083,
          0.0134083,
          1.0
        ],
        "metallicFactor": 0.0,
        "roughnessFactor": 0.9970018129737289
      }
    }
  ],
  "meshes": [
    {
      "name": "EyesWhite__0",
      "primitives": [
        {
          "attributes": {
            "NORMAL": 1,
            "POSITION": 0,
            "TEXCOORD_0": 2
          },
          "indices": 3,
          "material": 0,
          "mode": 4
        }
      ]
    },
    {
      "name": "Head_Material.001_0",
      "primitives": [
        {
          "attributes": {
            "NORMAL": 5,
            "POSITION": 4,
            "TEXCOORD_0": 6
          },
          "indices": 7,
          "material": 1,
          "mode": 4
        }
      ]
    },
    {
      "name": "Lips_Pink_0",
      "primitives": [
        {
          "attributes": {
            "NORMAL": 9,
            "POSITION": 8,
            "TEXCOORD_0": 10
          },
          "indices": 11,
          "material": 2,
          "mode": 4
        }
      ]
    },
    {
      "name": "EyesBlack_M_Black_0",
      "primitives": [
        {
          "attributes": {
            "NORMAL": 13,
            "POSITION": 12,
            "TEXCOORD_0": 14
          },
          "indices": 15,
          "material": 3,
          "mode": 4
        }
      ]
    }
  ],
  "nodes": [
    {
      "children": [
        1
      ],
      "matrix": [
        1.0,
        0.0,
        0.0,
        0.0,
        0.0,
        2.220446049250313e-16,
        -1.0,
        0.0,
        0.0,
        1.0,
        2.220446049250313e-16,
        0.0,
        0.0,
        0.0,
        0.0,
        1.0
      ],
      "name": "Sketchfab_model"
    },
    {
      "children": [
        2
      ],
      "matrix": [
        0.009999999776482582,
        0.0,
        0.0,
        0.0,
        0.0,
        0.0,
        0.009999999776482582,
        0.0,
        0.0,
        -0.009999999776482582,
        0.0,
        0.0,
        0.0,
        0.0,
        0.0,
        1.0
      ],
      "name": "2aa4de1510d746cdb88db0ad5e0dcce8.fbx"
    },
    {
      "children": [
        3,
        5,
        7,
        9
      ],
      "name": "RootNode"
    },
    {
      "children": [
        4
      ],
      "matrix": [
        1.0,
        0.0,
        0.0,
        0.0,
        0.0,
        1.0,
        0.0,
        0.0,
        0.0,
        0.0,
        1.0,
        0.0,
        -4.985727173334453e-06,
        30.32245635986328,
        44.96223068237305,
        1.0
      ],
      "name": "EyesWhite"
    },
    {
      "mesh": 0,
      "name": "EyesWhite__0"
    },
    {
      "children": [
        6
      ],
      "matrix": [
        1.0,
        0.0,
        0.0,
        0.0,
        0.0,
        1.0,
        0.0,
        0.0,
        0.0,
        0.0,
        1.0,
        0.0,
        -1.0305475370842032e-06,
        30.58152198791504,
        21.22871971130371,
        1.0
      ],
      "name": "Head"
    },
    {
      "mesh": 1,
      "name": "Head_Material.001_0"
    },
    {
      "children": [
        8
      ],
      "matrix": [
        1.0,
        0.0,
        0.0,
        0.0,
        0.0,
        1.0,
        0.0,
        0.0,
        0.0,
        0.0,
        1.0,
        0.0,
        -0.01612638495862484,
        -5.483007431030273,
        51.402099609375,
        1.0
      ],
      "name": "Lips"
    },
    {
      "mesh": 2,
      "name": "Lips_Pink_0"
    },
    {
      "children": [
        10
      ],
      "matrix": [
        1.0,
        0.0,
        0.0,
        0.0,
        0.0,
        1.0,
        0.0,
        0.0,
        0.0,
        0.0,
        1.0,
        0.0,
        -2.081553930111113e-06,
        30.3225040435791,
        66.13738250732422,
        1.0
      ],
      "name": "EyesBlack"
    },
    {
      "mesh": 3,
      "name": "EyesBlack_M_Black_0"
    }
  ],
  "scene": 0,
  "scenes": [
    {
      "name": "Sketchfab_Scene",
      "nodes": [
        0
      ]
    }
  ]
}
